<?xml version="1.0" standalone="no"?>
<!DOCTYPE svg PUBLIC "-//W3C//DTD SVG 20010904//EN"
 "http://www.w3.org/TR/2001/REC-SVG-20010904/DTD/svg10.dtd">
<svg version="1.0" xmlns="http://www.w3.org/2000/svg"
 width="128.000000pt" height="128.000000pt" viewBox="0 0 128.000000 128.000000"
 preserveAspectRatio="xMidYMid meet">

<g transform="translate(0.000000,128.000000) scale(0.100000,-0.100000)"
fill="#000000" stroke="none">
<path d="M612 1250 c-21 -36 -32 -37 -62 -5 -31 33 -38 32 -55 -7 -19 -47 -24
-50 -57 -27 -37 26 -56 19 -60 -23 -3 -35 -10 -37 -70 -23 -26 7 -27 5 -30
-36 -3 -40 -5 -44 -28 -41 -72 9 -67 14 -58 -58 3 -22 -1 -25 -32 -28 -60 -5
-63 -8 -45 -43 21 -40 13 -59 -25 -59 -40 0 -47 -21 -21 -58 23 -33 20 -38
-26 -57 -40 -17 -41 -24 -8 -55 32 -30 31 -41 -5 -62 -38 -22 -38 -34 0 -56
36 -21 37 -32 5 -62 -33 -31 -32 -38 8 -55 46 -19 49 -24 26 -57 -26 -37 -19
-58 21 -58 38 0 46 -19 25 -59 -18 -35 -15 -38 45 -43 31 -3 35 -6 31 -28 -11
-68 -13 -67 59 -58 23 3 25 -1 28 -41 3 -41 4 -43 30 -36 60 14 67 12 70 -23
4 -42 23 -49 60 -23 33 23 38 20 57 -27 17 -39 24 -40 55 -7 30 32 41 31 62
-5 22 -38 34 -38 56 0 21 36 32 37 62 5 31 -33 38 -32 55 7 19 47 24 50 57 27
37 -26 56 -19 60 23 3 35 10 37 70 23 26 -7 27 -5 30 36 3 40 5 44 28 41 72
-9 70 -10 59 58 -4 22 0 25 31 28 60 5 63 8 45 43 -21 40 -13 59 25 59 40 0
47 21 21 58 -23 33 -20 38 27 57 39 17 40 24 7 55 -32 30 -31 41 5 62 17 9 30
22 30 28 0 6 -13 19 -30 28 -36 21 -37 32 -5 62 33 31 32 38 -7 55 -47 19 -50
24 -27 57 26 37 19 58 -21 58 -38 0 -46 19 -25 59 18 35 15 38 -45 43 -31 3
-35 6 -31 28 11 68 13 67 -59 58 -23 -3 -25 1 -28 41 -3 41 -4 43 -30 36 -60
-14 -67 -12 -70 23 -4 42 -23 49 -60 23 -33 -23 -38 -20 -57 27 -17 39 -24 40
-55 7 -30 -32 -41 -31 -62 5 -9 17 -22 30 -28 30 -6 0 -19 -13 -28 -30z m52
-99 c19 -21 12 -48 -15 -56 -41 -13 -68 43 -31 64 23 14 27 14 46 -8z m-74
-86 c19 -19 39 -35 45 -35 6 0 30 16 52 35 23 19 50 35 60 35 32 0 159 -66
203 -106 23 -21 54 -56 69 -78 l28 -41 -23 -50 c-35 -73 -32 -82 31 -111 53
-25 55 -27 55 -65 0 -37 -2 -39 -30 -39 -28 0 -30 -3 -30 -35 0 -26 -6 -39
-26 -51 -40 -27 -74 -10 -90 45 -7 24 -24 56 -39 71 l-26 27 28 22 c79 63 84
139 15 214 -46 49 -99 57 -371 57 l-245 0 30 31 c33 34 175 109 208 109 12 0
37 -16 56 -35z m-375 -280 c0 -27 -3 -30 -30 -30 -21 0 -31 5 -33 18 -6 33 6
49 35 45 24 -3 28 -8 28 -33z m105 -121 l0 -144 -64 0 c-36 0 -67 4 -70 9 -4
5 -9 43 -12 84 l-7 74 54 29 c54 29 62 45 45 85 -6 13 -1 15 24 11 l30 -4 0
-144z m800 141 c14 -17 5 -51 -15 -59 -8 -3 -24 3 -36 13 -18 15 -20 21 -10
39 13 25 43 29 61 7z m-385 -15 c40 -44 -11 -72 -124 -68 l-76 3 -3 43 -3 42
94 0 c81 0 96 -3 112 -20z m-52 -202 c33 -17 44 -37 57 -103 7 -33 21 -72 32
-87 19 -28 21 -28 129 -28 60 0 109 -4 109 -9 0 -22 -37 -36 -94 -36 -53 0
-61 -3 -64 -20 -15 -86 -19 -92 -80 -109 -75 -21 -201 -20 -272 2 l-54 17 -14
57 c-8 31 -20 59 -27 61 -7 3 -32 1 -55 -4 -35 -8 -46 -7 -61 7 -11 9 -19 21
-19 26 0 4 86 8 190 8 l190 0 0 70 0 70 -60 0 -60 0 0 38 c0 21 3 42 7 45 11
12 123 8 146 -5z m-305 -310 c19 -19 14 -56 -8 -63 -24 -8 -50 10 -50 34 0 19
19 41 35 41 6 0 16 -5 23 -12z m577 -33 c0 -26 -31 -43 -52 -29 -25 15 -27 38
-7 58 14 15 19 15 38 3 11 -8 21 -22 21 -32z"/>
</g>
</svg>
